<?xml version="1.0" encoding="UTF-8"?>
<svg xmlns="http://www.w3.org/2000/svg" version="1.1" xmlns:cc="http://creativecommons.org/ns#" xmlns:dc="http://purl.org/dc/elements/1.1/" xmlns:inkscape="http://www.inkscape.org/namespaces/inkscape" xmlns:rdf="http://www.w3.org/1999/02/22-rdf-syntax-ns#" xmlns:sodipodi="http://sodipodi.sourceforge.net/DTD/sodipodi-0.dtd" xmlns:svg="http://www.w3.org/2000/svg" viewBox="0 0 700 700">
  <!-- Generator: Adobe Illustrator 29.0.1, SVG Export Plug-In . SVG Version: 2.1.0 Build 192)  -->
  <defs>
    <style>
      .st0 {
        fill: #001e36;
      }

      .st1 {
        fill: #31a8ff;
      }
    </style>
  </defs>
  <g id="svg20" inkscape:export-xdpi="561.73712" inkscape:export-ydpi="561.73712" inkscape:version="0.92.4 (5da689c313, 2019-01-14)">
    <sodipodi:namedview id="namedview22" bordercolor="#666666" borderopacity="1" gridtolerance="10" guidetolerance="10" inkscape:current-layer="svg20" inkscape:cx="393.14717" inkscape:cy="320.92781" inkscape:pageopacity="0" inkscape:pageshadow="2" inkscape:window-height="837" inkscape:window-maximized="1" inkscape:window-width="1600" inkscape:window-x="-8" inkscape:window-y="-8" inkscape:zoom="0.71315043" objecttolerance="10" pagecolor="#ffffff" showgrid="false"/>
    <g id="Layer_2" inkscape:export-filename="G:\Users\suitedoalex\sites\adobe-photoshop-logo-4.png" inkscape:export-xdpi="77.645012" inkscape:export-ydpi="77.645012">
      <g id="Surfaces">
        <g id="Photo_Surface">
          <g id="Outline_no_shadow">
            <rect id="rect8" class="st0" x="0" y="8.7" width="700" height="682.5" rx="124" ry="124"/>
          </g>
        </g>
      </g>
      <g id="Outlined_Mnemonics_Logos">
        <g id="Ps">
          <path id="path13" class="st1" d="M157.6,487.4V187.3c0-2.2.9-3.3,2.8-3.3,5,0,9.6,0,16.5-.2,6.9-.2,14.3-.3,22.3-.5,8-.2,16.4-.3,25.4-.5,8.9-.2,17.8-.2,26.5-.2,23.8,0,43.8,3,60.1,8.9,14.7,5,28.1,13.1,39.2,23.9,9.4,9.4,16.7,20.7,21.4,33.1,4.4,12.1,6.6,24.9,6.6,37.8,0,25-5.8,45.7-17.4,62-11.7,16.3-28,28.7-47,35.5-19.7,7.4-41.6,9.9-65.7,9.9s-11.7,0-14.6-.2c-2.8-.2-7-.2-12.7-.2v93.7c.3,2-1.1,3.9-3.2,4.2-.4,0-.7,0-1.1,0h-55.9c-2.2,0-3.3-1.2-3.3-3.8h0ZM221,240.4v97.9c4.1.3,7.8.5,11.3.5h15.5c11.4,0,22.7-1.8,33.6-5.4,9.3-2.8,17.6-8.1,23.9-15.5,6.1-7.2,9.2-17.2,9.2-30.1.2-9.1-2.1-18-6.8-25.8-4.9-7.5-12.1-13.3-20.4-16.7-10.9-4.2-22.6-6.2-34.3-5.9-7.5,0-14.2,0-20,.2-5.8.2-9.8.4-12,.7h0Z" inkscape:connector-curvature="0"/>
          <path id="path15" class="st1" d="M559.9,320.4c-8.8-4.5-18.2-7.9-27.9-9.9-10.7-2.5-21.7-3.7-32.6-3.8-5.9-.2-11.9.6-17.6,2.1-3.7.8-6.9,2.9-9.2,5.9-1.5,2.4-2.3,5.2-2.3,8,0,2.7,1.1,5.4,2.8,7.5,2.7,3.2,6.1,5.8,9.9,7.7,6.7,3.6,13.6,6.8,20.7,9.6,15.8,5.3,30.8,12.5,44.8,21.4,9.6,6,17.5,14.3,23,24.2,4.7,9.3,7,19.6,6.8,30.1.3,13.8-3.7,27.3-11.3,38.7-8.2,11.6-19.5,20.7-32.6,26.1-14.2,6.3-31.9,9.4-52.8,9.4-13.3.1-26.6-1.1-39.7-3.8-10.3-1.9-20.3-5-29.8-9.4-2.1-1.1-3.4-3.3-3.3-5.6v-50.7c-.1-1,.3-2,1.2-2.6.8-.5,1.9-.4,2.6.2,11.2,6.6,23.4,11.5,36.2,14.3,11.2,2.8,22.7,4.3,34.3,4.5,11,0,19-1.4,24.2-4.2,4.8-2.2,7.8-7,7.7-12.2,0-4.1-2.3-8-7-11.7-4.7-3.8-14.2-8.3-28.6-13.6-14.7-5.1-28.7-12.2-41.6-21.1-9.2-6.4-16.7-14.8-22.1-24.7-4.6-9.3-7-19.5-6.8-29.8,0-12.4,3.4-24.6,9.9-35.2,7.4-11.7,18-21,30.5-26.8,13.8-6.9,31-10.3,51.7-10.3,12.1,0,24.2.8,36.2,2.6,8.7,1.1,17.1,3.4,25.2,6.8,1.3.4,2.3,1.3,2.8,2.6.3,1.1.5,2.3.5,3.5v47.4c0,1.1-.5,2.2-1.4,2.8-1.3.6-2.8.6-4,0h0Z" inkscape:connector-curvature="0"/>
        </g>
      </g>
    </g>
  </g>
</svg>