<?xml version="1.0" encoding="UTF-8"?>
<svg xmlns="http://www.w3.org/2000/svg" version="1.1" xmlns:cc="http://creativecommons.org/ns#" xmlns:dc="http://purl.org/dc/elements/1.1/" xmlns:inkscape="http://www.inkscape.org/namespaces/inkscape" xmlns:rdf="http://www.w3.org/1999/02/22-rdf-syntax-ns#" xmlns:sodipodi="http://sodipodi.sourceforge.net/DTD/sodipodi-0.dtd" xmlns:svg="http://www.w3.org/2000/svg" viewBox="0 0 700 700">
  <!-- Generator: Adobe Illustrator 29.0.1, SVG Export Plug-In . SVG Version: 2.1.0 Build 192)  -->
  <defs>
    <style>
      .st0 {
        fill: #300;
      }

      .st1 {
        fill: #ff9a00;
      }
    </style>
  </defs>
  <g id="svg20" inkscape:export-xdpi="561.73712" inkscape:export-ydpi="561.73712" inkscape:version="0.92.4 (5da689c313, 2019-01-14)">
    <sodipodi:namedview id="namedview22" bordercolor="#666666" borderopacity="1" gridtolerance="10" guidetolerance="10" inkscape:current-layer="svg20" inkscape:cx="333.84615" inkscape:cy="243.2365" inkscape:pageopacity="0" inkscape:pageshadow="2" inkscape:window-height="837" inkscape:window-maximized="1" inkscape:window-width="1600" inkscape:window-x="-8" inkscape:window-y="-8" inkscape:zoom="0.71315043" objecttolerance="10" pagecolor="#ffffff" showgrid="false"/>
    <g id="Layer_2" inkscape:export-filename="G:\Users\suitedoalex\sites\adobe-Illustrator-logo-4.png" inkscape:export-xdpi="76.467949" inkscape:export-ydpi="76.467949">
      <g id="Surfaces">
        <g id="Drawing_Surface">
          <g id="Outline_no_shadow">
            <rect id="rect8" class="st0" x="0" y="8.7" width="700" height="682.5" rx="124" ry="124"/>
          </g>
        </g>
      </g>
      <g id="Outlined_Mnemonics_Logos">
        <g id="Ai">
          <path id="path13" class="st1" d="M339.2,418.3h-108.5l-22.1,68.6c-.6,2.6-3,4.4-5.6,4.2h-54.9c-3.1,0-4.2-1.7-3.3-5.2l93.9-270.5c.9-2.8,1.9-6,2.8-9.6,1.2-6.3,1.9-12.6,1.9-19-.2-1.6.9-3.1,2.5-3.3.3,0,.5,0,.8,0h74.7c2.2,0,3.4.8,3.8,2.3l106.6,300.5c.9,3.1,0,4.7-2.8,4.7h-61c-2.2.2-4.2-1.2-4.7-3.3l-23.9-69.5ZM247.6,359.2h74.2c-1.9-6.3-4.1-13.3-6.6-21.1-2.5-7.8-5.2-16.2-8-25.1-2.8-8.9-5.6-17.8-8.5-26.8-2.8-8.9-5.4-17.5-7.7-25.8-2.3-8.3-4.5-15.9-6.3-22.8h-.5c-2.6,12.7-5.9,25.2-9.9,37.6-4.4,14.1-8.8,28.5-13.4,43.2-4.5,14.7-9,28.3-13.4,40.9h0Z" inkscape:connector-curvature="0"/>
          <path id="path15" class="st1" d="M495.1,233.3c-9.7.4-19.1-3.4-25.8-10.3-6.7-7.3-10.3-16.9-9.9-26.8-.3-9.8,3.5-19.3,10.6-26.1,7-6.7,16.4-10.3,26.1-10.1,11.3,0,20.1,3.4,26.5,10.1,6.5,7.1,10,16.4,9.6,26.1.4,9.9-3.2,19.6-10.1,26.8-7.2,7.1-17,10.8-27,10.3h0ZM462.7,486.4v-224.5c0-2.8,1.2-4.2,3.8-4.2h57.8c2.5,0,3.8,1.4,3.8,4.2v224.5c0,3.1-1.3,4.7-3.8,4.7h-57.3c-2.8,0-4.2-1.6-4.2-4.7Z" inkscape:connector-curvature="0"/>
        </g>
      </g>
    </g>
  </g>
</svg>