<?xml version="1.0" encoding="UTF-8"?>
<svg id="Layer_1" xmlns="http://www.w3.org/2000/svg" version="1.1" xmlns:xlink="http://www.w3.org/1999/xlink" viewBox="0 0 128 128">
  <!-- Generator: Adobe Illustrator 29.0.1, SVG Export Plug-In . SVG Version: 2.1.0 Build 192)  -->
  <defs>
    <style>
      .st0 {
        fill: #4d4d4d;
      }

      .st1 {
        fill: #fff;
      }

      .st2 {
        fill: #115a91;
      }

      .st3 {
        isolation: isolate;
        opacity: .2;
      }

      .st4 {
        fill: url(#linear-gradient);
      }
    </style>
    <linearGradient id="linear-gradient" x1="64" y1="130" x2="64" y2="12.7" gradientTransform="translate(0 130) scale(1 -1)" gradientUnits="userSpaceOnUse">
      <stop offset="0" stop-color="#29abe2"/>
      <stop offset=".5" stop-color="#28a9e1"/>
      <stop offset=".7" stop-color="#23a2dc"/>
      <stop offset=".8" stop-color="#1a96d4"/>
      <stop offset=".9" stop-color="#0e85c9"/>
      <stop offset="1" stop-color="#0071bc"/>
    </linearGradient>
  </defs>
  <g id="Layer_11" data-name="Layer_1">
    <path class="st4" d="M128,91.7c0,14.1-11.5,25.6-25.6,25.6H25.6c-14.1,0-25.6-11.5-25.6-25.6V25.6C0,11.5,11.5,0,25.6,0h76.7c14.1,0,25.6,11.5,25.6,25.6v66.1Z"/>
    <path class="st2" d="M102.4,117.3H25.6c-14.1,0-25.6-11.5-25.6-25.6v10.7c0,14.1,11.5,25.6,25.6,25.6h76.7c14.1,0,25.6-11.5,25.6-25.6v-10.7c0,14.1-11.5,25.6-25.6,25.6Z"/>
    <path class="st1" d="M113.1,89.6c0,7.1-5.7,12.8-12.8,12.8H27.8c-7.1,0-12.8-5.7-12.8-12.8V27.8c0-7.1,5.7-12.8,12.8-12.8h72.5c7.1,0,12.8,5.7,12.8,12.8v61.8Z"/>
    <g>
      <image class="st3" width="49" height="79" transform="translate(16.3 20.9) scale(1)" xlink:href="Brackets_Icon-1.png"/>
      <path class="st0" d="M58.7,25.6v14.9h-18.1v34.1h18.1v16H24.5V25.6h34.1Z"/>
    </g>
    <g>
      <image class="st3" width="49" height="79" transform="translate(59 20.9) scale(1)" xlink:href="Brackets_Icon-2.png"/>
      <path class="st0" d="M101.3,25.6v65.1h-34.1v-16h19.2v-34.1h-19.2v-14.9h34.1Z"/>
    </g>
  </g>
</svg>